<mxfile host="app.diagrams.net" agent="Mozilla/5.0 (Windows NT 10.0; Win64; x64) AppleWebKit/537.36 (KHTML, like Gecko) Chrome/132.0.0.0 Safari/537.36" version="26.0.12">
  <diagram id="C5RBs43oDa-KdzZeNtuy" name="Page-1">
    <mxGraphModel dx="792" dy="1139" grid="1" gridSize="10" guides="1" tooltips="1" connect="1" arrows="1" fold="1" page="1" pageScale="1" pageWidth="827" pageHeight="1169" math="0" shadow="0">
      <root>
        <mxCell id="WIyWlLk6GJQsqaUBKTNV-0" />
        <mxCell id="WIyWlLk6GJQsqaUBKTNV-1" parent="WIyWlLk6GJQsqaUBKTNV-0" />
        <mxCell id="WIyWlLk6GJQsqaUBKTNV-2" value="" style="rounded=0;html=1;jettySize=auto;orthogonalLoop=1;fontSize=11;endArrow=block;endFill=0;endSize=8;strokeWidth=1;shadow=0;labelBackgroundColor=none;edgeStyle=orthogonalEdgeStyle;" parent="WIyWlLk6GJQsqaUBKTNV-1" source="WIyWlLk6GJQsqaUBKTNV-3" target="WIyWlLk6GJQsqaUBKTNV-6" edge="1">
          <mxGeometry relative="1" as="geometry" />
        </mxCell>
        <mxCell id="WIyWlLk6GJQsqaUBKTNV-3" value="Welcome to Blackjack" style="rounded=1;whiteSpace=wrap;html=1;fontSize=12;glass=0;strokeWidth=1;shadow=0;" parent="WIyWlLk6GJQsqaUBKTNV-1" vertex="1">
          <mxGeometry x="160" y="80" width="120" height="40" as="geometry" />
        </mxCell>
        <mxCell id="WIyWlLk6GJQsqaUBKTNV-4" value="" style="rounded=0;html=1;jettySize=auto;orthogonalLoop=1;fontSize=11;endArrow=block;endFill=0;endSize=8;strokeWidth=1;shadow=0;labelBackgroundColor=none;edgeStyle=orthogonalEdgeStyle;" parent="WIyWlLk6GJQsqaUBKTNV-1" source="WIyWlLk6GJQsqaUBKTNV-6" edge="1">
          <mxGeometry y="20" relative="1" as="geometry">
            <mxPoint as="offset" />
            <mxPoint x="220" y="300" as="targetPoint" />
          </mxGeometry>
        </mxCell>
        <mxCell id="WIyWlLk6GJQsqaUBKTNV-5" value="" style="edgeStyle=orthogonalEdgeStyle;rounded=0;html=1;jettySize=auto;orthogonalLoop=1;fontSize=11;endArrow=block;endFill=0;endSize=8;strokeWidth=1;shadow=0;labelBackgroundColor=none;" parent="WIyWlLk6GJQsqaUBKTNV-1" source="WIyWlLk6GJQsqaUBKTNV-6" target="WIyWlLk6GJQsqaUBKTNV-7" edge="1">
          <mxGeometry y="10" relative="1" as="geometry">
            <mxPoint as="offset" />
          </mxGeometry>
        </mxCell>
        <mxCell id="WIyWlLk6GJQsqaUBKTNV-6" value="Enter your Bet" style="rhombus;whiteSpace=wrap;html=1;shadow=0;fontFamily=Helvetica;fontSize=12;align=center;strokeWidth=1;spacing=6;spacingTop=-4;" parent="WIyWlLk6GJQsqaUBKTNV-1" vertex="1">
          <mxGeometry x="170" y="170" width="100" height="80" as="geometry" />
        </mxCell>
        <mxCell id="WIyWlLk6GJQsqaUBKTNV-7" value="Create a Bankroll" style="rounded=1;whiteSpace=wrap;html=1;fontSize=12;glass=0;strokeWidth=1;shadow=0;" parent="WIyWlLk6GJQsqaUBKTNV-1" vertex="1">
          <mxGeometry x="320" y="190" width="120" height="40" as="geometry" />
        </mxCell>
        <mxCell id="AQsaTnccCab8mV_OQ3tu-0" value="Create Deck of Playing Cards" style="rounded=1;whiteSpace=wrap;html=1;fontSize=12;glass=0;strokeWidth=1;shadow=0;" vertex="1" parent="WIyWlLk6GJQsqaUBKTNV-1">
          <mxGeometry x="320" y="120" width="120" height="40" as="geometry" />
        </mxCell>
        <mxCell id="AQsaTnccCab8mV_OQ3tu-6" value="" style="edgeStyle=orthogonalEdgeStyle;rounded=0;orthogonalLoop=1;jettySize=auto;html=1;" edge="1" parent="WIyWlLk6GJQsqaUBKTNV-1" source="AQsaTnccCab8mV_OQ3tu-2" target="AQsaTnccCab8mV_OQ3tu-3">
          <mxGeometry relative="1" as="geometry" />
        </mxCell>
        <mxCell id="AQsaTnccCab8mV_OQ3tu-7" value="" style="edgeStyle=orthogonalEdgeStyle;rounded=0;orthogonalLoop=1;jettySize=auto;html=1;" edge="1" parent="WIyWlLk6GJQsqaUBKTNV-1" source="AQsaTnccCab8mV_OQ3tu-2" target="AQsaTnccCab8mV_OQ3tu-4">
          <mxGeometry relative="1" as="geometry" />
        </mxCell>
        <mxCell id="AQsaTnccCab8mV_OQ3tu-2" value="Begin Hand" style="rhombus;whiteSpace=wrap;html=1;shadow=0;fontFamily=Helvetica;fontSize=12;align=center;strokeWidth=1;spacing=6;spacingTop=-4;" vertex="1" parent="WIyWlLk6GJQsqaUBKTNV-1">
          <mxGeometry x="170" y="410" width="100" height="83" as="geometry" />
        </mxCell>
        <mxCell id="AQsaTnccCab8mV_OQ3tu-14" value="" style="edgeStyle=orthogonalEdgeStyle;rounded=0;orthogonalLoop=1;jettySize=auto;html=1;" edge="1" parent="WIyWlLk6GJQsqaUBKTNV-1" source="AQsaTnccCab8mV_OQ3tu-3" target="AQsaTnccCab8mV_OQ3tu-13">
          <mxGeometry relative="1" as="geometry" />
        </mxCell>
        <mxCell id="AQsaTnccCab8mV_OQ3tu-3" value="Stay" style="rhombus;whiteSpace=wrap;html=1;shadow=0;fontFamily=Helvetica;fontSize=12;align=center;strokeWidth=1;spacing=6;spacingTop=-4;" vertex="1" parent="WIyWlLk6GJQsqaUBKTNV-1">
          <mxGeometry x="170" y="543" width="100" height="80" as="geometry" />
        </mxCell>
        <mxCell id="AQsaTnccCab8mV_OQ3tu-11" value="" style="edgeStyle=orthogonalEdgeStyle;rounded=0;orthogonalLoop=1;jettySize=auto;html=1;" edge="1" parent="WIyWlLk6GJQsqaUBKTNV-1" source="AQsaTnccCab8mV_OQ3tu-4" target="AQsaTnccCab8mV_OQ3tu-9">
          <mxGeometry relative="1" as="geometry" />
        </mxCell>
        <mxCell id="AQsaTnccCab8mV_OQ3tu-4" value="Hit" style="rhombus;whiteSpace=wrap;html=1;shadow=0;fontFamily=Helvetica;fontSize=12;align=center;strokeWidth=1;spacing=6;spacingTop=-4;" vertex="1" parent="WIyWlLk6GJQsqaUBKTNV-1">
          <mxGeometry x="330" y="413" width="100" height="80" as="geometry" />
        </mxCell>
        <mxCell id="AQsaTnccCab8mV_OQ3tu-5" value="" style="edgeStyle=orthogonalEdgeStyle;rounded=0;html=1;jettySize=auto;orthogonalLoop=1;fontSize=11;endArrow=block;endFill=0;endSize=8;strokeWidth=1;shadow=0;labelBackgroundColor=none;entryX=0;entryY=0.75;entryDx=0;entryDy=0;exitX=1;exitY=0;exitDx=0;exitDy=0;" edge="1" parent="WIyWlLk6GJQsqaUBKTNV-1" source="WIyWlLk6GJQsqaUBKTNV-6" target="AQsaTnccCab8mV_OQ3tu-0">
          <mxGeometry y="10" relative="1" as="geometry">
            <mxPoint as="offset" />
            <mxPoint x="280" y="220" as="sourcePoint" />
            <mxPoint x="330" y="220" as="targetPoint" />
            <Array as="points">
              <mxPoint x="290" y="190" />
              <mxPoint x="290" y="150" />
            </Array>
          </mxGeometry>
        </mxCell>
        <mxCell id="AQsaTnccCab8mV_OQ3tu-10" value="" style="edgeStyle=orthogonalEdgeStyle;rounded=0;orthogonalLoop=1;jettySize=auto;html=1;" edge="1" parent="WIyWlLk6GJQsqaUBKTNV-1" source="AQsaTnccCab8mV_OQ3tu-9" target="AQsaTnccCab8mV_OQ3tu-4">
          <mxGeometry relative="1" as="geometry" />
        </mxCell>
        <mxCell id="AQsaTnccCab8mV_OQ3tu-12" value="" style="edgeStyle=orthogonalEdgeStyle;rounded=0;orthogonalLoop=1;jettySize=auto;html=1;" edge="1" parent="WIyWlLk6GJQsqaUBKTNV-1" source="AQsaTnccCab8mV_OQ3tu-9" target="AQsaTnccCab8mV_OQ3tu-3">
          <mxGeometry relative="1" as="geometry" />
        </mxCell>
        <mxCell id="AQsaTnccCab8mV_OQ3tu-9" value="Add another card to Player&#39;s hand" style="rounded=1;whiteSpace=wrap;html=1;fontSize=12;glass=0;strokeWidth=1;shadow=0;" vertex="1" parent="WIyWlLk6GJQsqaUBKTNV-1">
          <mxGeometry x="320" y="563" width="120" height="40" as="geometry" />
        </mxCell>
        <mxCell id="AQsaTnccCab8mV_OQ3tu-16" value="" style="edgeStyle=orthogonalEdgeStyle;rounded=0;orthogonalLoop=1;jettySize=auto;html=1;" edge="1" parent="WIyWlLk6GJQsqaUBKTNV-1" source="AQsaTnccCab8mV_OQ3tu-13" target="AQsaTnccCab8mV_OQ3tu-15">
          <mxGeometry relative="1" as="geometry" />
        </mxCell>
        <mxCell id="AQsaTnccCab8mV_OQ3tu-18" value="" style="edgeStyle=orthogonalEdgeStyle;rounded=0;orthogonalLoop=1;jettySize=auto;html=1;" edge="1" parent="WIyWlLk6GJQsqaUBKTNV-1" source="AQsaTnccCab8mV_OQ3tu-13" target="AQsaTnccCab8mV_OQ3tu-17">
          <mxGeometry relative="1" as="geometry" />
        </mxCell>
        <mxCell id="AQsaTnccCab8mV_OQ3tu-13" value="Resolve Dealer Hand (draw until hard 17)" style="rounded=1;whiteSpace=wrap;html=1;fontSize=12;glass=0;strokeWidth=1;shadow=0;" vertex="1" parent="WIyWlLk6GJQsqaUBKTNV-1">
          <mxGeometry x="160" y="658" width="120" height="40" as="geometry" />
        </mxCell>
        <mxCell id="AQsaTnccCab8mV_OQ3tu-26" value="" style="edgeStyle=orthogonalEdgeStyle;rounded=0;orthogonalLoop=1;jettySize=auto;html=1;" edge="1" parent="WIyWlLk6GJQsqaUBKTNV-1" source="AQsaTnccCab8mV_OQ3tu-15" target="AQsaTnccCab8mV_OQ3tu-24">
          <mxGeometry relative="1" as="geometry" />
        </mxCell>
        <mxCell id="AQsaTnccCab8mV_OQ3tu-15" value="Win? Add Bet to Bankroll" style="rounded=1;whiteSpace=wrap;html=1;fontSize=12;glass=0;strokeWidth=1;shadow=0;" vertex="1" parent="WIyWlLk6GJQsqaUBKTNV-1">
          <mxGeometry x="160" y="743" width="120" height="40" as="geometry" />
        </mxCell>
        <mxCell id="AQsaTnccCab8mV_OQ3tu-27" value="" style="edgeStyle=orthogonalEdgeStyle;rounded=0;orthogonalLoop=1;jettySize=auto;html=1;" edge="1" parent="WIyWlLk6GJQsqaUBKTNV-1" source="AQsaTnccCab8mV_OQ3tu-17" target="AQsaTnccCab8mV_OQ3tu-24">
          <mxGeometry relative="1" as="geometry">
            <Array as="points">
              <mxPoint x="390" y="870" />
              <mxPoint x="80" y="870" />
            </Array>
          </mxGeometry>
        </mxCell>
        <mxCell id="AQsaTnccCab8mV_OQ3tu-17" value="Lose? Remove Bet from Bankroll" style="rounded=1;whiteSpace=wrap;html=1;fontSize=12;glass=0;strokeWidth=1;shadow=0;" vertex="1" parent="WIyWlLk6GJQsqaUBKTNV-1">
          <mxGeometry x="330" y="743" width="120" height="40" as="geometry" />
        </mxCell>
        <mxCell id="AQsaTnccCab8mV_OQ3tu-22" value="" style="edgeStyle=orthogonalEdgeStyle;rounded=0;orthogonalLoop=1;jettySize=auto;html=1;" edge="1" parent="WIyWlLk6GJQsqaUBKTNV-1" source="AQsaTnccCab8mV_OQ3tu-20" target="AQsaTnccCab8mV_OQ3tu-21">
          <mxGeometry relative="1" as="geometry" />
        </mxCell>
        <mxCell id="AQsaTnccCab8mV_OQ3tu-23" value="" style="edgeStyle=orthogonalEdgeStyle;rounded=0;orthogonalLoop=1;jettySize=auto;html=1;" edge="1" parent="WIyWlLk6GJQsqaUBKTNV-1" source="AQsaTnccCab8mV_OQ3tu-20" target="AQsaTnccCab8mV_OQ3tu-2">
          <mxGeometry relative="1" as="geometry" />
        </mxCell>
        <mxCell id="AQsaTnccCab8mV_OQ3tu-20" value="Deal Cards to Player and Dealer" style="rhombus;whiteSpace=wrap;html=1;shadow=0;fontFamily=Helvetica;fontSize=12;align=center;strokeWidth=1;spacing=6;spacingTop=-4;" vertex="1" parent="WIyWlLk6GJQsqaUBKTNV-1">
          <mxGeometry x="150" y="290" width="120" height="90" as="geometry" />
        </mxCell>
        <mxCell id="AQsaTnccCab8mV_OQ3tu-25" value="" style="edgeStyle=orthogonalEdgeStyle;rounded=0;orthogonalLoop=1;jettySize=auto;html=1;" edge="1" parent="WIyWlLk6GJQsqaUBKTNV-1" source="AQsaTnccCab8mV_OQ3tu-21" target="AQsaTnccCab8mV_OQ3tu-24">
          <mxGeometry relative="1" as="geometry">
            <Array as="points">
              <mxPoint x="490" y="60" />
              <mxPoint x="80" y="60" />
            </Array>
          </mxGeometry>
        </mxCell>
        <mxCell id="AQsaTnccCab8mV_OQ3tu-21" value="Player Blackjack? Pay 1.5x Bet UNLESS Dealer also has Blackjack" style="rounded=1;whiteSpace=wrap;html=1;fontSize=12;glass=0;strokeWidth=1;shadow=0;" vertex="1" parent="WIyWlLk6GJQsqaUBKTNV-1">
          <mxGeometry x="430" y="300" width="120" height="70" as="geometry" />
        </mxCell>
        <mxCell id="AQsaTnccCab8mV_OQ3tu-30" value="" style="edgeStyle=orthogonalEdgeStyle;rounded=0;orthogonalLoop=1;jettySize=auto;html=1;" edge="1" parent="WIyWlLk6GJQsqaUBKTNV-1" source="AQsaTnccCab8mV_OQ3tu-24" target="WIyWlLk6GJQsqaUBKTNV-6">
          <mxGeometry relative="1" as="geometry" />
        </mxCell>
        <mxCell id="AQsaTnccCab8mV_OQ3tu-24" value="New Game?" style="rhombus;whiteSpace=wrap;html=1;shadow=0;fontFamily=Helvetica;fontSize=12;align=center;strokeWidth=1;spacing=6;spacingTop=-4;" vertex="1" parent="WIyWlLk6GJQsqaUBKTNV-1">
          <mxGeometry x="30" y="170" width="100" height="80" as="geometry" />
        </mxCell>
      </root>
    </mxGraphModel>
  </diagram>
</mxfile>
